<?xml version="1.0" ?><!DOCTYPE svg  PUBLIC '-//W3C//DTD SVG 1.1//EN'  'http://www.w3.org/Graphics/SVG/1.1/DTD/svg11.dtd'><svg enable-background="new 0 0 226.8 226.8" id="Layer_1" version="1.1" viewBox="0 0 226.8 226.8" xml:space="preserve" xmlns="http://www.w3.org/2000/svg" xmlns:xlink="http://www.w3.org/1999/xlink"><g><g><path d="M145.9,181.8H84.6c-10.7,0-17.6-7.5-17.6-19.2l-2.4-29.7c-0.1-1.4,0.9-2.6,2.3-2.7c1.4-0.1,2.6,0.9,2.7,2.3l2.4,29.8    c0,0.1,0,0.1,0,0.2c0,3.4,0.9,14.3,12.6,14.3h61.3c7.8,0,9.5-4.6,11.4-15.3c0.2-1.2,2.6-19.2,3.9-31.8c0.1-1.4,1.4-2.4,2.8-2.2    c1.4,0.1,2.4,1.4,2.2,2.8c-1.4,13-3.9,31.8-4,32c0,0,0,0.1,0,0.1C160.6,171.4,158.7,181.8,145.9,181.8z"/></g><g><g><path d="M153.6,133.3c-7.7,0-12.1-2.4-15-4c-2.1-1.2-2.8-1.5-5.1-1.5c-2.4,0-3,0.4-5.1,1.5c-2.9,1.6-7.3,4-15,4     c-7.7,0-12.1-2.4-15-4c-2.1-1.2-2.8-1.5-5.1-1.5c-2.4,0-3,0.4-5.1,1.5c-2.9,1.6-7.3,4-15,4s-12.1-2.4-15-4     c-2.1-1.2-2.7-1.5-5.1-1.5c-5.3,0-9.6-3.9-9.6-8.8s4.3-8.8,9.6-8.8c7.7,0,12.1,2.4,15,4c2.1,1.2,2.7,1.5,5.1,1.5     c2.4,0,3-0.4,5.1-1.5c2.9-1.6,7.3-4,15-4c7.7,0,12.1,2.4,15,4c2.1,1.2,2.8,1.5,5.1,1.5c2.4,0,3-0.4,5.1-1.5c2.9-1.6,7.3-4,15-4     c7.7,0,12.1,2.4,15,4c2.1,1.2,2.8,1.5,5.1,1.5s3-0.4,5.1-1.5c2.9-1.6,7.3-4,15-4c5.3,0,9.6,3.9,9.6,8.8s-4.3,8.8-9.6,8.8     c-2.4,0-3,0.4-5.1,1.5C165.7,130.9,161.3,133.3,153.6,133.3z M133.5,122.8c3.7,0,5.2,0.9,7.5,2.1c2.8,1.5,6.2,3.4,12.6,3.4     c6.4,0,9.8-1.9,12.6-3.4c2.3-1.3,3.9-2.1,7.5-2.1c2.5,0,4.6-1.7,4.6-3.8c0-2.1-2.1-3.8-4.6-3.8c-6.4,0-9.8,1.9-12.6,3.4     c-2.3,1.3-3.9,2.1-7.5,2.1s-5.2-0.9-7.5-2.1c-2.8-1.5-6.2-3.4-12.6-3.4c-6.4,0-9.8,1.9-12.6,3.4c-2.3,1.3-3.9,2.1-7.5,2.1     s-5.2-0.9-7.5-2.1c-2.8-1.5-6.2-3.4-12.6-3.4c-6.4,0-9.8,1.9-12.6,3.4c-2.3,1.3-3.9,2.1-7.5,2.1c-3.7,0-5.2-0.9-7.5-2.1     c-2.8-1.5-6.2-3.4-12.6-3.4c-2.5,0-4.6,1.7-4.6,3.8c0,2.1,2.1,3.8,4.6,3.8c3.7,0,5.2,0.9,7.5,2.1c2.8,1.5,6.2,3.4,12.6,3.4     s9.8-1.9,12.6-3.4c2.3-1.3,3.9-2.1,7.5-2.1c3.7,0,5.2,0.9,7.5,2.1c2.8,1.5,6.2,3.4,12.6,3.4c6.4,0,9.8-1.9,12.6-3.4     C128.3,123.6,129.8,122.8,133.5,122.8z"/></g></g><g><path d="M84.6,181.8c-1.3,0-2.4-1-2.5-2.3l-2.9-38.2c-0.1-1.4,0.9-2.6,2.3-2.7c1.4-0.1,2.6,0.9,2.7,2.3l2.9,38.2    c0.1,1.4-0.9,2.6-2.3,2.7C84.7,181.8,84.6,181.8,84.6,181.8z"/></g><g><path d="M145.9,181.8c-0.1,0-0.2,0-0.2,0c-1.4-0.1-2.4-1.3-2.3-2.7l3.6-38.2c0.1-1.4,1.4-2.4,2.7-2.3c1.4,0.1,2.4,1.3,2.3,2.7    l-3.6,38.2C148.2,180.8,147.1,181.8,145.9,181.8z"/></g><g><path d="M134.7,181.8c0,0-0.1,0-0.1,0c-1.4-0.1-2.4-1.2-2.4-2.6l1.4-29.1c0.1-1.4,1.2-2.5,2.6-2.4c1.4,0.1,2.4,1.2,2.4,2.6    l-1.4,29.1C137.1,180.7,136,181.8,134.7,181.8z"/></g><g><path d="M96.9,181.8c-1.3,0-2.4-1-2.5-2.3l-1.8-29.1c-0.1-1.4,1-2.6,2.3-2.7c1.4-0.1,2.6,1,2.7,2.3l1.8,29.1    c0.1,1.4-1,2.6-2.3,2.7C97,181.8,97,181.8,96.9,181.8z"/></g><g><path d="M109.7,181.8c-1.4,0-2.5-1.1-2.5-2.5v-19.1c0-1.4,1.1-2.5,2.5-2.5s2.5,1.1,2.5,2.5v19.1    C112.2,180.6,111.1,181.8,109.7,181.8z"/></g><g><path d="M122.6,181.8c-1.4,0-2.5-1.1-2.5-2.5v-19.1c0-1.4,1.1-2.5,2.5-2.5s2.5,1.1,2.5,2.5v19.1    C125.1,180.6,124,181.8,122.6,181.8z"/></g><g><path d="M161.3,117.6c-0.3,0-0.6-0.1-0.9-0.2c-1.2-0.5-1.9-1.9-1.4-3.2c1-2.8,2.3-8.2,2.2-10.8c-0.6-8.3-5.7-14.9-11.6-14.5    c-0.8,0-1.7,0.2-2.5,0.6c-0.8,0.3-1.7,0.3-2.4-0.2c-0.7-0.5-1.1-1.3-1.1-2.2c0-0.9,0-1.7,0-2.4c-0.5-7.6-4.8-13.8-9.3-13.6    c-1.1,0.1-2.1-0.6-2.5-1.7c-1.9-5.7-12.4-10.6-16.2-12c0,0-0.1,0-0.1,0c-6-2.5-11.6-6.1-13.1-7.1c-0.9-0.2-1.6-0.2-2,0.1    c-0.3,0.2-0.5,0.7-0.6,1.1l3.4,6.3c0.1,0.2,0.2,0.4,0.2,0.6c0.7,3.2-0.3,5.4-1.3,6.7c-2.7,3.6-8.1,4-8.7,4    c-5.2,0.4-9.1,5.4-8.7,11.1c0,0.4,0.1,0.9,0.2,1.5c0.1,0.7,0,1.5-0.5,2c-0.4,0.6-1.1,0.9-1.9,1c0,0-0.1,0-0.2,0    c-3.3,0.2-6.4,1.7-8.6,4.2c-2.2,2.5-3.4,5.8-3.1,9.2c0.1,1.7,0.6,3.4,1.4,5c0.4,0.7,0.4,1.6,0,2.3s-1.1,1.2-1.9,1.3    c-1.8,0.2-3.1,2.1-2.9,4.3c0.1,1.1,0.3,1.9,0.5,2.3c0.7,0.7,0.9,1.9,0.4,2.8c0,0,0,0,0,0c0,0,0,0,0,0c0,0,0,0,0,0c0,0,0,0,0,0    c-0.1,0.1-0.1,0.3-0.2,0.4c-0.4,0.6-1.1,1-1.8,1c-0.9,0.1-1.7-0.3-2.2-1c-1.1-1.6-1.4-3.7-1.5-5.2c-0.2-3.6,1.5-6.9,4.3-8.6    c-0.4-1.4-0.7-2.8-0.8-4.3c-0.3-4.8,1.2-9.3,4.4-12.9c2.6-2.9,5.9-4.8,9.6-5.5C79.3,71.7,85.2,64.6,93,64c1-0.1,3.9-0.6,5-2    c0.3-0.4,0.6-1,0.4-2.3L94.9,53c-0.2-0.4-0.3-0.8-0.3-1.2c0-0.4,0.2-3.6,2.8-5.5c1.2-0.9,3.3-1.7,6.7-0.8c0.3,0.1,0.5,0.2,0.7,0.3    c0.1,0,6.1,4.2,12.5,6.8c1.8,0.6,14.5,5.5,18.5,13.5c6.6,0.9,12,8.3,12.7,17.9c0.3,0,0.5-0.1,0.8-0.1c8.6-0.5,16.1,8.2,16.8,19.2    c0.2,2.5-0.5,5.9-1.2,8.6c0.4,1,0.2,2-0.5,2.7c-0.2,0.4-0.5,1-0.8,1.7C163.2,117,162.2,117.6,161.3,117.6z"/></g><g><path d="M80,107.2c-1,0-1.9-0.6-2.3-1.5l-3.1-7c-0.6-1.3,0-2.7,1.3-3.3c1.3-0.6,2.7,0,3.3,1.3l3.1,7c0.6,1.3,0,2.7-1.3,3.3    C80.7,107.2,80.3,107.2,80,107.2z"/></g><g><path d="M89.4,94.6c-1.4,0-2.5-1.1-2.5-2.5V84c0-1.4,1.1-2.5,2.5-2.5s2.5,1.1,2.5,2.5v8.2C91.9,93.5,90.8,94.6,89.4,94.6z"/></g><g><path d="M103.5,100.2c-0.5,0-1-0.1-1.4-0.4c-1.1-0.8-1.4-2.3-0.7-3.5l3.2-4.7c0.8-1.1,2.3-1.4,3.5-0.7c1.1,0.8,1.4,2.3,0.7,3.5    l-3.2,4.7C105,99.8,104.3,100.2,103.5,100.2z"/></g><g><path d="M118.8,73.9c-0.9,0-1.7-0.5-2.2-1.3l-3.5-6.4c-0.7-1.2-0.2-2.7,1-3.4c1.2-0.7,2.7-0.2,3.4,1l3.5,6.4    c0.7,1.2,0.2,2.7-1,3.4C119.6,73.8,119.2,73.9,118.8,73.9z"/></g><g><path d="M110.2,80.4c-1.4,0-2.5-1.1-2.5-2.5v-6.5c0-1.4,1.1-2.5,2.5-2.5s2.5,1.1,2.5,2.5v6.5C112.7,79.3,111.6,80.4,110.2,80.4z"/></g><g><path d="M148.9,103.7c-0.3,0-0.7-0.1-1-0.2c-1.3-0.5-1.8-2-1.3-3.3l2.6-5.9c0.6-1.3,2-1.8,3.3-1.3c1.3,0.5,1.8,2,1.3,3.3l-2.6,5.9    C150.8,103.1,149.9,103.7,148.9,103.7z"/></g><g><path d="M132.3,107.2c-0.9,0-1.7-0.5-2.2-1.3l-3.8-7c-0.7-1.2-0.2-2.7,1-3.4c1.2-0.7,2.7-0.2,3.4,1l3.8,7c0.7,1.2,0.2,2.7-1,3.4    C133.1,107.1,132.7,107.2,132.3,107.2z"/></g><g><path d="M138,90.5c-0.6,0-1.1-0.2-1.6-0.6l-5.8-4.9c-1.1-0.9-1.2-2.5-0.3-3.5c0.9-1.1,2.5-1.2,3.5-0.3l5.8,4.9    c1.1,0.9,1.2,2.5,0.3,3.5C139.4,90.2,138.7,90.5,138,90.5z"/></g></g></svg>